<svg width="909" height="453" viewBox="0 0 909 453" fill="none" xmlns="http://www.w3.org/2000/svg">
<g clip-path="url(#clip0)">
<path opacity="0.2" d="M215.195 295.974C211.027 305.724 210.462 316.637 213.6 326.765C216.738 336.893 223.375 345.575 232.325 351.26C241.275 356.945 251.955 359.262 262.456 357.797C272.957 356.332 282.596 351.182 289.649 343.265C287.103 349.221 283.292 354.553 278.481 358.89C273.67 363.228 267.973 366.468 261.786 368.385C255.598 370.302 249.068 370.852 242.647 369.995C236.226 369.137 230.068 366.895 224.6 363.422C219.132 359.949 214.485 355.328 210.98 349.881C207.475 344.433 205.196 338.289 204.301 331.873C203.407 325.457 203.917 318.924 205.798 312.725C207.679 306.527 210.886 300.811 215.195 295.974Z" fill="black"/>
<path d="M248.31 325.819H248.432L250.642 452.5H245.977L248.31 325.819Z" fill="#3F3D56"/>
<path opacity="0.2" d="M95.8274 122C87.4243 141.656 86.2844 163.66 92.6113 184.08C98.9383 204.499 112.32 222.004 130.365 233.465C148.41 244.927 169.942 249.599 191.115 246.646C212.287 243.693 231.719 233.308 245.94 217.346C240.806 229.355 233.124 240.105 223.423 248.85C213.723 257.595 202.238 264.127 189.763 267.993C177.287 271.859 164.121 272.966 151.175 271.238C138.23 269.51 125.815 264.988 114.79 257.986C103.766 250.984 94.3954 241.668 87.3286 230.685C80.2617 219.702 75.6672 207.313 73.8634 194.378C72.0596 181.443 73.0897 168.27 76.8822 155.772C80.6748 143.275 87.1391 131.751 95.8274 122Z" fill="black"/>
<path d="M158.029 197.087H158.277L162.732 452.5H153.327L158.029 197.087Z" fill="#3F3D56"/>
<path d="M751.731 320.3H338.809V442.707H751.731V320.3Z" fill="#F0F0F0"/>
<path d="M569.343 345.597H521.196V442.707H569.343V345.597Z" fill="#CACACA"/>
<path d="M727.657 175.859H362.882V288.474H727.657V175.859Z" fill="#F0F0F0"/>
<path d="M764.639 182.795H325.901C325.168 182.795 324.453 182.576 323.846 182.166C323.239 181.756 322.768 181.174 322.494 180.495C322.221 179.815 322.157 179.07 322.31 178.353C322.464 177.637 322.828 176.983 323.356 176.476L443.263 61.2197V11.0167C443.265 10.0431 443.652 9.10969 444.34 8.42125C445.029 7.73281 445.962 7.34556 446.936 7.34447H470.601C471.575 7.34553 472.508 7.73277 473.197 8.42122C473.885 9.10966 474.272 10.0431 474.273 11.0167V31.4132L483.33 22.7076C498.151 8.46168 517.814 0.353056 538.368 0.0112602C558.923 -0.330535 578.845 7.11982 594.131 20.8651L767.094 176.392C767.646 176.889 768.035 177.541 768.209 178.264C768.383 178.986 768.333 179.744 768.067 180.438C767.801 181.131 767.331 181.728 766.719 182.149C766.107 182.57 765.382 182.795 764.639 182.795V182.795Z" fill="#CACACA"/>
<path d="M459.176 204.421C462.231 204.421 465.255 205.022 468.077 206.191C470.898 207.36 473.462 209.073 475.622 211.233C477.782 213.392 479.495 215.956 480.663 218.778C481.832 221.6 482.434 224.624 482.434 227.678V259.096H435.919V227.678C435.919 224.624 436.521 221.6 437.689 218.778C438.858 215.956 440.571 213.392 442.731 211.233C444.891 209.073 447.454 207.36 450.276 206.191C453.098 205.022 456.122 204.421 459.176 204.421Z" fill="white"/>
<path d="M545.27 204.829C551.438 204.829 557.354 207.279 561.715 211.641C566.077 216.002 568.527 221.918 568.527 228.086V259.504H522.012V228.086C522.012 221.918 524.463 216.002 528.824 211.641C533.186 207.279 539.102 204.829 545.27 204.829Z" fill="white"/>
<path d="M631.363 205.237C637.531 205.237 643.447 207.687 647.809 212.049C652.17 216.41 654.62 222.326 654.62 228.494V259.912H608.106V228.494C608.106 222.326 610.556 216.41 614.918 212.049C619.279 207.687 625.195 205.237 631.363 205.237Z" fill="white"/>
<path d="M665.637 344.373C671.805 344.373 677.721 346.824 682.083 351.185C686.444 355.547 688.895 361.462 688.895 367.631V399.049H642.38V367.631C642.38 361.462 644.83 355.547 649.192 351.185C653.553 346.824 659.469 344.373 665.637 344.373Z" fill="white"/>
<path d="M435.511 344.373C441.679 344.373 447.595 346.824 451.956 351.185C456.318 355.547 458.768 361.462 458.768 367.631V399.049H412.254V367.631C412.254 364.577 412.855 361.552 414.024 358.73C415.193 355.909 416.906 353.345 419.065 351.185C421.225 349.026 423.789 347.312 426.611 346.144C429.432 344.975 432.457 344.373 435.511 344.373Z" fill="white"/>
<path d="M812.057 322.211L734.597 287.937C734.181 287.753 733.731 287.658 733.277 287.658H364.118C363.696 287.658 363.279 287.739 362.888 287.898L278.574 322.172C277.873 322.457 277.292 322.977 276.932 323.643C276.572 324.309 276.454 325.079 276.6 325.822C276.745 326.565 277.144 327.235 277.728 327.716C278.313 328.197 279.046 328.46 279.803 328.46H301.679V441.075H299.231V452.5H791.309V441.075H787.229V328.46H810.736C811.484 328.46 812.21 328.203 812.792 327.732C813.373 327.26 813.775 326.603 813.93 325.871C814.084 325.139 813.983 324.375 813.642 323.709C813.301 323.043 812.741 322.514 812.057 322.211ZM780.7 441.075H308.207V328.46H780.7V441.075Z" fill="#CACACA"/>
<path d="M488.146 254.608H428.575V264.4H488.146V254.608Z" fill="#CACACA"/>
<path d="M575.464 254.608H515.892V264.4H575.464V254.608Z" fill="#CACACA"/>
<path d="M662.781 254.608H603.209V264.4H662.781V254.608Z" fill="#CACACA"/>
<path d="M695.423 395.784H635.851V405.577H695.423V395.784Z" fill="#CACACA"/>
<path d="M464.481 395.784H404.909V405.577H464.481V395.784Z" fill="#CACACA"/>
<path d="M908 453H1C0.734784 453 0.480429 452.895 0.292892 452.707C0.105356 452.52 0 452.265 0 452C0 451.735 0.105356 451.48 0.292892 451.293C0.480429 451.105 0.734784 451 1 451H908C908.265 451 908.52 451.105 908.707 451.293C908.895 451.48 909 451.735 909 452C909 452.265 908.895 452.52 908.707 452.707C908.52 452.895 908.265 453 908 453Z" fill="#3F3D56"/>
<path d="M578.959 270.547H517.021V221C518.164 198.357 537.517 196.529 555.702 197.744C558.756 197.744 561.78 198.345 564.602 199.514C567.424 200.682 569.987 202.396 572.147 204.555C574.307 206.715 576.02 209.278 577.189 212.1C578.357 214.922 578.959 217.946 578.959 221V270.547Z" fill="#00BFA6"/>
</g>
<defs>
<clipPath id="clip0">
<rect width="909" height="453" fill="white"/>
</clipPath>
</defs>
</svg>
